<?xml version="1.0" encoding="UTF-8" standalone="no"?>
<svg
   xmlns:dc="http://purl.org/dc/elements/1.1/"
   xmlns:cc="http://creativecommons.org/ns#"
   xmlns:rdf="http://www.w3.org/1999/02/22-rdf-syntax-ns#"
   xmlns:svg="http://www.w3.org/2000/svg"
   xmlns="http://www.w3.org/2000/svg"
   id="svg158"
   xml:space="preserve"
   viewBox="0 0 550 445"
   height="445"
   width="550"
   version="1.1"><metadata
     id="metadata162"><rdf:RDF><cc:Work
         rdf:about=""><dc:format>image/svg+xml</dc:format><dc:type
           rdf:resource="http://purl.org/dc/dcmitype/StillImage" /></cc:Work></rdf:RDF></metadata><defs
     id="defs4"><style
       id="style2"
       type="text/css">@import url(&quot;https://fonts.googleapis.com/css2?family=Nova+Square:wght@400&quot;);</style></defs><defs
     id="defs6" /><g
     id="icon"
     transform="matrix(0.23 0 0 0.23 124.8 222.5)"><g
       id="g147"
       style=""><g
         id="icon_piece"
         transform="matrix(1 0 0 1 -208.03 54.69)"><linearGradient
           y2="94.767"
           x2="80.93775"
           y1="0"
           x1="0"
           gradientTransform="matrix(1 0 0 1 7.5 263.31)"
           gradientUnits="userSpaceOnUse"
           id="SVGID_5"><stop
             id="stop8"
             style="stop-color:rgb(70,77,89);stop-opacity: 1"
             offset="0%" /></linearGradient><path
           id="path11"
           stroke-linecap="round"
           d="M 88.437 263.307 l -12.713 3.449 c -23.795 6.454 -45.756 18.37 -64.137 34.801 l 0 0 c -5.449 4.87 -5.449 13.397 0 18.267 l 0 0 c 18.382 16.431 40.343 28.347 64.138 34.801 l 12.713 3.449 L 88.437 263.307 L 88.437 263.307 z"
           transform=" translate(-47.97, -310.69)"
           style="stroke: none; stroke-width: 1; stroke-dasharray: none; stroke-linecap: butt; stroke-dashoffset: 0; stroke-linejoin: miter; stroke-miterlimit: 4; fill: url(#SVGID_5); fill-rule: nonzero; opacity: 1;" /></g><g
         id="g19"
         transform="matrix(1 0 0 1 29.48 -103.5)"><linearGradient
           y2="165.252"
           x2="165.25199999999998"
           y1="0"
           x1="0"
           gradientTransform="matrix(1 0 0 1 202.86 69.87)"
           gradientUnits="userSpaceOnUse"
           id="SVGID_6"><stop
             id="stop14"
             style="stop-color:rgb(139,205,216);stop-opacity: 1"
             offset="0%" /></linearGradient><path
           id="path17"
           stroke-linecap="round"
           d="M 218.355 235.121 h 67.128 c 45.633 0 82.626 -36.993 82.626 -82.626 l 0 0 c 0 -45.633 -36.993 -82.626 -82.626 -82.626 l 0 0 c -45.633 0 -82.626 36.993 -82.626 82.626 v 67.128 C 202.858 228.183 209.796 235.121 218.355 235.121 z"
           transform=" translate(-285.48, -152.5)"
           style="stroke: none; stroke-width: 1; stroke-dasharray: none; stroke-linecap: butt; stroke-dashoffset: 0; stroke-linejoin: miter; stroke-miterlimit: 4; fill: url(#SVGID_6); fill-rule: nonzero; opacity: 1;" /></g><g
         id="g26"
         transform="matrix(1 0 0 1 -129.44 181.99)"><linearGradient
           y2="111.89099999999996"
           x2="54.21739544004626"
           y1="0"
           x1="0"
           gradientTransform="matrix(1 0 0 1 99.45 382.04)"
           gradientUnits="userSpaceOnUse"
           id="SVGID_7"><stop
             id="stop21"
             style="stop-color:rgb(70,77,89);stop-opacity: 1"
             offset="0%" /></linearGradient><path
           id="path24"
           stroke-linecap="round"
           d="M 117.761 493.933 c -3.817 0 -7.665 -1.187 -10.958 -3.649 c -8.108 -6.059 -9.768 -17.545 -3.707 -25.653 c 13.912 -18.613 13.912 -36.772 13.912 -64.261 c 0 -10.122 8.206 -18.328 18.328 -18.328 s 18.328 8.206 18.328 18.328 c 0 29.742 0 57.833 -21.207 86.207 C 128.857 491.391 123.343 493.933 117.761 493.933 z"
           transform=" translate(-126.56, -437.99)"
           style="stroke: none; stroke-width: 1; stroke-dasharray: none; stroke-linecap: butt; stroke-dashoffset: 0; stroke-linejoin: miter; stroke-miterlimit: 4; fill: url(#SVGID_7); fill-rule: nonzero; opacity: 1;" /></g><g
         id="g33"
         transform="matrix(1 0 0 1 -121.24 156.21)"><linearGradient
           y2="60.337999999999965"
           x2="37.797"
           y1="0"
           x1="0"
           gradientTransform="matrix(1 0 0 1 115.87 382.04)"
           gradientUnits="userSpaceOnUse"
           id="SVGID_8"><stop
             id="stop28"
             style="stop-color:rgb(0,0,0);stop-opacity: 1"
             offset="0%" /></linearGradient><path
           id="path31"
           stroke-linecap="round"
           d="M 135.335 382.043 c -10.122 0 -18.328 8.206 -18.328 18.328 c 0 11.943 -0.002 22.123 -1.142 31.346 c 10.93 5.386 22.853 9.061 35.426 10.664 c 2.364 -13.765 2.371 -27.696 2.371 -42.01 C 153.662 390.249 145.457 382.043 135.335 382.043 z"
           transform=" translate(-134.76, -412.21)"
           style="stroke: none; stroke-width: 1; stroke-dasharray: none; stroke-linecap: butt; stroke-dashoffset: 0; stroke-linejoin: miter; stroke-miterlimit: 4; fill: url(#SVGID_8); fill-rule: nonzero; opacity: 0.14;" /></g><g
         id="g40"
         transform="matrix(1 0 0 1 -58.14 181.99)"><linearGradient
           y2="111.89099999999996"
           x2="54.218395440046265"
           y1="0"
           x1="0"
           gradientTransform="matrix(1 0 0 1 170.75 382.04)"
           gradientUnits="userSpaceOnUse"
           id="SVGID_9"><stop
             id="stop35"
             style="stop-color:rgb(70,77,89);stop-opacity: 1"
             offset="0%" /></linearGradient><path
           id="path38"
           stroke-linecap="round"
           d="M 189.069 493.933 c -3.817 0 -7.666 -1.187 -10.958 -3.649 c -8.108 -6.06 -9.768 -17.545 -3.707 -25.653 c 13.913 -18.613 13.913 -36.773 13.913 -64.261 c 0 -10.122 8.206 -18.328 18.328 -18.328 c 10.122 0 18.328 8.206 18.328 18.328 c 0 29.742 0 57.833 -21.208 86.207 C 200.165 491.391 194.651 493.933 189.069 493.933 z"
           transform=" translate(-197.86, -437.99)"
           style="stroke: none; stroke-width: 1; stroke-dasharray: none; stroke-linecap: butt; stroke-dashoffset: 0; stroke-linejoin: miter; stroke-miterlimit: 4; fill: url(#SVGID_9); fill-rule: nonzero; opacity: 1;" /></g><g
         id="g47"
         transform="matrix(1 0 0 1 13.17 181.99)"><linearGradient
           y2="111.89099999999996"
           x2="54.21639544004614"
           y1="0"
           x1="0"
           gradientTransform="matrix(1 0 0 1 242.06 382.04)"
           gradientUnits="userSpaceOnUse"
           id="SVGID_10"><stop
             id="stop42"
             style="stop-color:rgb(70,77,89);stop-opacity: 1"
             offset="0%" /></linearGradient><path
           id="path45"
           stroke-linecap="round"
           d="M 260.379 493.933 c -3.817 0 -7.665 -1.187 -10.958 -3.649 c -8.108 -6.059 -9.768 -17.545 -3.707 -25.653 c 13.911 -18.613 13.911 -36.772 13.911 -64.261 c 0 -10.122 8.206 -18.328 18.328 -18.328 s 18.328 8.206 18.328 18.328 c 0 29.742 0 57.833 -21.207 86.207 C 271.474 491.391 265.961 493.933 260.379 493.933 z"
           transform=" translate(-269.17, -437.99)"
           style="stroke: none; stroke-width: 1; stroke-dasharray: none; stroke-linecap: butt; stroke-dashoffset: 0; stroke-linejoin: miter; stroke-miterlimit: 4; fill: url(#SVGID_10); fill-rule: nonzero; opacity: 1;" /></g><g
         id="g54"
         transform="matrix(1 0 0 1 20.26 156.67)"><linearGradient
           y2="61.25199999999995"
           x2="40.032000091386806"
           y1="0"
           x1="0"
           gradientTransform="matrix(1 0 0 1 256.25 382.04)"
           gradientUnits="userSpaceOnUse"
           id="SVGID_11"><stop
             id="stop49"
             style="stop-color:rgb(0,0,0);stop-opacity: 1"
             offset="0%" /></linearGradient><path
           id="path52"
           stroke-linecap="round"
           d="M 277.952 382.043 c -10.122 0 -18.328 8.206 -18.328 18.328 c 0 17.146 -0.001 30.663 -3.377 42.924 h 37.502 c 2.524 -14.062 2.53 -28.293 2.53 -42.924 C 296.28 390.249 288.074 382.043 277.952 382.043 z"
           transform=" translate(-276.26, -412.67)"
           style="stroke: none; stroke-width: 1; stroke-dasharray: none; stroke-linecap: butt; stroke-dashoffset: 0; stroke-linejoin: miter; stroke-miterlimit: 4; fill: url(#SVGID_11); fill-rule: nonzero; opacity: 0.14;" /></g><g
         id="g61"
         transform="matrix(1 0 0 1 84.48 181.99)"><linearGradient
           y2="111.89099999999996"
           x2="54.217395440046175"
           y1="0"
           x1="0"
           gradientTransform="matrix(1 0 0 1 313.37 382.04)"
           gradientUnits="userSpaceOnUse"
           id="SVGID_12"><stop
             id="stop56"
             style="stop-color:rgb(70,77,89);stop-opacity: 1"
             offset="0%" /></linearGradient><path
           id="path59"
           stroke-linecap="round"
           d="M 331.688 493.933 c -3.817 0 -7.665 -1.187 -10.958 -3.649 c -8.108 -6.059 -9.768 -17.545 -3.707 -25.653 c 13.912 -18.613 13.912 -36.772 13.912 -64.261 c 0 -10.122 8.206 -18.328 18.328 -18.328 s 18.328 8.206 18.328 18.328 c 0 29.742 0 57.833 -21.207 86.207 C 342.784 491.391 337.27 493.933 331.688 493.933 z"
           transform=" translate(-340.48, -437.99)"
           style="stroke: none; stroke-width: 1; stroke-dasharray: none; stroke-linecap: butt; stroke-dashoffset: 0; stroke-linejoin: miter; stroke-miterlimit: 4; fill: url(#SVGID_12); fill-rule: nonzero; opacity: 1;" /></g><g
         id="g68"
         transform="matrix(1 0 0 1 91.98 155.03)"><linearGradient
           y2="57.98299999999995"
           x2="39.22000000000003"
           y1="0"
           x1="0"
           gradientTransform="matrix(1 0 0 1 328.37 382.04)"
           gradientUnits="userSpaceOnUse"
           id="SVGID_13"><stop
             id="stop63"
             style="stop-color:rgb(0,0,0);stop-opacity: 1"
             offset="0%" /></linearGradient><path
           id="path66"
           stroke-linecap="round"
           d="M 349.262 382.043 c -10.122 0 -18.328 8.206 -18.328 18.328 c 0 15.638 -0.004 28.255 -2.565 39.655 c 14.216 -3.495 27.374 -9.678 38.903 -17.984 c 0.315 -7.143 0.317 -14.357 0.317 -21.671 C 367.589 390.249 359.384 382.043 349.262 382.043 z"
           transform=" translate(-347.98, -411.03)"
           style="stroke: none; stroke-width: 1; stroke-dasharray: none; stroke-linecap: butt; stroke-dashoffset: 0; stroke-linejoin: miter; stroke-miterlimit: 4; fill: url(#SVGID_13); fill-rule: nonzero; opacity: 0.14;" /></g><g
         id="g75"
         transform="matrix(1 0 0 1 -22.48 54.69)"><linearGradient
           y2="225.89999999999998"
           x2="361.503"
           y1="0"
           x1="0"
           gradientTransform="matrix(1 0 0 1 52.77 197.74)"
           gradientUnits="userSpaceOnUse"
           id="SVGID_14"><stop
             id="stop70"
             style="stop-color:rgb(247,216,139);stop-opacity: 1"
             offset="0%" /></linearGradient><path
           id="path73"
           stroke-linecap="round"
           d="M 301.32 423.64 H 165.717 c -62.381 0 -112.95 -50.57 -112.95 -112.95 l 0 0 c 0 -62.381 50.57 -112.95 112.95 -112.95 H 301.32 c 62.381 0 112.95 50.57 112.95 112.95 l 0 0 C 414.27 373.071 363.701 423.64 301.32 423.64 z"
           transform=" translate(-233.52, -310.69)"
           style="stroke: none; stroke-width: 1; stroke-dasharray: none; stroke-linecap: butt; stroke-dashoffset: 0; stroke-linejoin: miter; stroke-miterlimit: 4; fill: url(#SVGID_14); fill-rule: nonzero; opacity: 1;" /></g><g
         id="g82"
         transform="matrix(1 0 0 1 -51.05 156.67)"><linearGradient
           y2="61.25199999999995"
           x2="40.03200036550848"
           y1="0"
           x1="0"
           gradientTransform="matrix(1 0 0 1 184.94 382.04)"
           gradientUnits="userSpaceOnUse"
           id="SVGID_15"><stop
             id="stop77"
             style="stop-color:rgb(0,0,0);stop-opacity: 1"
             offset="0%" /></linearGradient><path
           id="path80"
           stroke-linecap="round"
           d="M 206.644 382.043 c -10.122 0 -18.328 8.206 -18.328 18.328 c 0 17.146 -0.001 30.662 -3.378 42.924 h 37.502 c 2.525 -14.062 2.53 -28.293 2.53 -42.924 C 224.972 390.249 216.766 382.043 206.644 382.043 z"
           transform=" translate(-204.95, -412.67)"
           style="stroke: none; stroke-width: 1; stroke-dasharray: none; stroke-linecap: butt; stroke-dashoffset: 0; stroke-linejoin: miter; stroke-miterlimit: 4; fill: url(#SVGID_15); fill-rule: nonzero; opacity: 0.14;" /></g><g
         id="g89"
         transform="matrix(1 0 0 1 -49.88 54.69)"><linearGradient
           y2="225.901"
           x2="153.5472297195346"
           y1="0"
           x1="0"
           gradientTransform="matrix(1 0 0 1 129.35 197.74)"
           gradientUnits="userSpaceOnUse"
           id="SVGID_16"><stop
             id="stop84"
             style="stop-color:rgb(70,77,89);stop-opacity: 1"
             offset="0%" /></linearGradient><path
           id="path87"
           stroke-linecap="round"
           d="M 165.717 197.739 c -2.192 0 -4.366 0.069 -6.527 0.192 c -43.702 53.542 -41.346 171.633 19.975 225.709 h 103.729 c -61.393 -54.139 -63.685 -172.449 -19.822 -225.901 L 165.717 197.739 L 165.717 197.739 z"
           transform=" translate(-206.12, -310.69)"
           style="stroke: none; stroke-width: 1; stroke-dasharray: none; stroke-linecap: butt; stroke-dashoffset: 0; stroke-linejoin: miter; stroke-miterlimit: 4; fill: url(#SVGID_16); fill-rule: nonzero; opacity: 1;" /></g><g
         id="g96"
         transform="matrix(1 0 0 1 47.39 32.18)"><linearGradient
           y2="180.88899999999998"
           x2="221.76899999999998"
           y1="0"
           x1="0"
           gradientTransform="matrix(1 0 0 1 192.5 197.74)"
           gradientUnits="userSpaceOnUse"
           id="SVGID_17"><stop
             id="stop91"
             style="stop-color:rgb(0,0,0);stop-opacity: 1"
             offset="0%" /></linearGradient><path
           id="path94"
           stroke-linecap="round"
           d="M 301.32 197.739 h -94.134 c -9.408 16.57 -14.684 35.157 -14.684 54.795 c 0 69.639 66.331 126.094 148.155 126.094 c 20.414 0 39.862 -3.515 57.558 -9.871 c 10.191 -16.969 16.056 -36.832 16.056 -58.067 l 0 0 C 414.27 248.309 363.701 197.739 301.32 197.739 z"
           transform=" translate(-303.39, -288.18)"
           style="stroke: none; stroke-width: 1; stroke-dasharray: none; stroke-linecap: butt; stroke-dashoffset: 0; stroke-linejoin: miter; stroke-miterlimit: 4; fill: url(#SVGID_17); fill-rule: nonzero; opacity: 0.14;" /></g><g
         id="g103"
         transform="matrix(1 0 0 1 -122.36 -103.5)"><linearGradient
           y2="165.252"
           x2="165.252"
           y1="0"
           x1="0"
           gradientTransform="matrix(1 0 0 1 51.01 69.87)"
           gradientUnits="userSpaceOnUse"
           id="SVGID_18"><stop
             id="stop98"
             style="stop-color:rgb(171,223,235);stop-opacity: 1"
             offset="0%" /></linearGradient><path
           id="path101"
           stroke-linecap="round"
           d="M 200.766 235.121 h -67.128 c -45.633 0 -82.626 -36.993 -82.626 -82.626 l 0 0 c 0 -45.633 36.993 -82.626 82.626 -82.626 l 0 0 c 45.633 0 82.626 36.993 82.626 82.626 v 67.128 C 216.264 228.183 209.325 235.121 200.766 235.121 z"
           transform=" translate(-133.64, -152.5)"
           style="stroke: none; stroke-width: 1; stroke-dasharray: none; stroke-linecap: butt; stroke-dashoffset: 0; stroke-linejoin: miter; stroke-miterlimit: 4; fill: url(#SVGID_18); fill-rule: nonzero; opacity: 1;" /></g><g
         id="g110"
         transform="matrix(1 0 0 1 100.35 -25.64)"><linearGradient
           y2="252.18"
           x2="296.32"
           y1="0"
           x1="0"
           gradientTransform="matrix(1 0 0 1 -148.16 -126.09)"
           gradientUnits="userSpaceOnUse"
           id="SVGID_19"><stop
             id="stop105"
             style="stop-color:rgb(247,216,139);stop-opacity: 1"
             offset="0%" /></linearGradient><ellipse
           id="ellipse108"
           ry="126.09"
           rx="148.16"
           cy="0"
           cx="0"
           style="stroke: none; stroke-width: 1; stroke-dasharray: none; stroke-linecap: butt; stroke-dashoffset: 0; stroke-linejoin: miter; stroke-miterlimit: 4; fill: url(#SVGID_19); fill-rule: nonzero; opacity: 1;" /></g><g
         id="g117"
         transform="matrix(1 0 0 1 34.33 -27.62)"><linearGradient
           y2="45.706"
           x2="57.396"
           y1="0"
           x1="0"
           gradientTransform="matrix(1 0 0 1 -28.7 -22.85)"
           gradientUnits="userSpaceOnUse"
           id="SVGID_20"><stop
             id="stop112"
             style="stop-color:rgb(242,114,129);stop-opacity: 1"
             offset="0%" /></linearGradient><ellipse
           id="ellipse115"
           ry="22.853"
           rx="28.698"
           cy="0"
           cx="0"
           style="stroke: none; stroke-width: 1; stroke-dasharray: none; stroke-linecap: butt; stroke-dashoffset: 0; stroke-linejoin: miter; stroke-miterlimit: 4; fill: url(#SVGID_20); fill-rule: nonzero; opacity: 1;" /></g><g
         id="g124"
         transform="matrix(1 0 0 1 189.88 -27.62)"><linearGradient
           y2="45.706"
           x2="57.396"
           y1="0"
           x1="0"
           gradientTransform="matrix(1 0 0 1 -28.7 -22.85)"
           gradientUnits="userSpaceOnUse"
           id="SVGID_21"><stop
             id="stop119"
             style="stop-color:rgb(242,114,129);stop-opacity: 1"
             offset="0%" /></linearGradient><ellipse
           id="ellipse122"
           ry="22.853"
           rx="28.698"
           cy="0"
           cx="0"
           style="stroke: none; stroke-width: 1; stroke-dasharray: none; stroke-linecap: butt; stroke-dashoffset: 0; stroke-linejoin: miter; stroke-miterlimit: 4; fill: url(#SVGID_21); fill-rule: nonzero; opacity: 1;" /></g><g
         id="g131"
         transform="matrix(1 0 0 1 88.41 -216.82)"><linearGradient
           y2="42.22"
           x2="42.22"
           y1="0"
           x1="0"
           gradientTransform="matrix(1 0 0 1 -21.11 -21.11)"
           gradientUnits="userSpaceOnUse"
           id="SVGID_22"><stop
             id="stop126"
             style="stop-color:rgb(70,77,89);stop-opacity: 1"
             offset="0%" /></linearGradient><circle
           id="circle129"
           r="21.11"
           cy="0"
           cx="0"
           style="stroke: none; stroke-width: 1; stroke-dasharray: none; stroke-linecap: butt; stroke-dashoffset: 0; stroke-linejoin: miter; stroke-miterlimit: 4; fill: url(#SVGID_22); fill-rule: nonzero; opacity: 1;" /></g><g
         id="g138"
         transform="matrix(1 0 0 1 192.83 -216.82)"><linearGradient
           y2="42.22"
           x2="42.22"
           y1="0"
           x1="0"
           gradientTransform="matrix(1 0 0 1 -21.11 -21.11)"
           gradientUnits="userSpaceOnUse"
           id="SVGID_23"><stop
             id="stop133"
             style="stop-color:rgb(70,77,89);stop-opacity: 1"
             offset="0%" /></linearGradient><circle
           id="circle136"
           r="21.11"
           cy="0"
           cx="0"
           style="stroke: none; stroke-width: 1; stroke-dasharray: none; stroke-linecap: butt; stroke-dashoffset: 0; stroke-linejoin: miter; stroke-miterlimit: 4; fill: url(#SVGID_23); fill-rule: nonzero; opacity: 1;" /></g><g
         id="g145"
         transform="matrix(1 0 0 1 0 0)"><linearGradient
           y2="490.865"
           x2="512.0000003122453"
           y1="0"
           x1="0"
           gradientTransform="matrix(1 0 0 1 0 10.57)"
           gradientUnits="userSpaceOnUse"
           id="SVGID_24"><stop
             id="stop140"
             style="stop-color:rgb(0,0,0);stop-opacity: 1"
             offset="0%" /></linearGradient><path
           id="path143"
           stroke-linecap="round"
           d="M 488.142 159.219 c -2.451 -3.339 -7.147 -4.059 -10.484 -1.609 c -3.339 2.451 -4.06 7.145 -1.609 10.484 C 489.755 186.772 497 208.303 497 230.361 c 0 65.393 -63.098 118.594 -140.655 118.594 c -76.437 0 -138.825 -51.675 -140.613 -115.767 c 0 -0.028 -0.001 -0.055 -0.001 -0.083 c -0.025 -0.912 -0.041 -1.827 -0.041 -2.744 c 0 -47.184 32.854 -88.017 80.285 -107.1 c 0.126 3.363 0.383 6.336 0.745 8.734 c 0.561 3.716 3.76 6.381 7.406 6.381 c 0.373 0 0.75 -0.027 1.13 -0.085 c 4.096 -0.619 6.914 -4.44 6.296 -8.536 c -0.414 -2.741 -0.688 -6.783 -0.669 -11.627 c 13.204 -3.813 27.286 -6.016 41.918 -6.322 c 0.006 0 0.012 0 0.018 0 c 1.172 -0.025 2.348 -0.038 3.527 -0.038 c 15.099 0 29.916 2.035 43.967 5.934 c -0.039 5.693 0.277 10.646 0.828 14.294 c 0.562 3.716 3.76 6.381 7.406 6.381 c 0.373 0 0.75 -0.027 1.13 -0.085 c 4.096 -0.619 6.914 -4.44 6.296 -8.536 c -0.275 -1.819 -0.485 -4.224 -0.593 -7.042 c 13.039 5.092 25.189 11.885 35.997 20.246 c 3.276 2.534 7.984 1.933 10.521 -1.344 c 2.534 -3.276 1.933 -7.986 -1.344 -10.521 c -13.316 -10.301 -28.451 -18.445 -44.715 -24.212 c 1.323 -14.827 5.356 -32.785 14.835 -45.605 c 4.943 4.069 11.269 6.515 18.156 6.515 c 15.777 0 28.613 -12.836 28.613 -28.613 s -12.836 -28.613 -28.613 -28.613 s -28.613 12.836 -28.613 28.613 c 0 3.248 0.552 6.367 1.553 9.279 c -11.489 13.255 -16.729 30.851 -19.098 43.86 c -0.618 3.396 -1.093 6.784 -1.456 10.103 c -14.422 -3.717 -29.52 -5.653 -44.87 -5.653 c -0.022 0 -0.044 0.001 -0.067 0.001 c -9.388 -11.904 -21.546 -21.131 -35.189 -27.017 c 1.51 -2.993 3.218 -5.844 5.163 -8.475 c 4.943 4.069 11.269 6.515 18.156 6.515 c 15.777 0 28.613 -12.836 28.613 -28.613 s -12.836 -28.613 -28.613 -28.613 s -28.613 12.836 -28.613 28.613 c 0 3.248 0.552 6.367 1.553 9.279 c -4.363 5.034 -7.843 10.68 -10.585 16.48 c -6.903 -1.688 -14.043 -2.568 -21.279 -2.568 c -31.102 0 -59.553 15.941 -75.936 41.588 c -16.037 -24.994 -44.072 -41.588 -75.91 -41.588 c -49.695 0 -90.126 40.431 -90.126 90.126 c 0 29.926 14.664 56.486 37.18 72.887 c -11.823 11.775 -20.957 25.745 -26.99 40.993 c -17.315 7.166 -33.154 17.107 -47.116 29.587 C 2.4 299.708 -0.001 305.075 0 310.69 c 0 5.615 2.401 10.982 6.588 14.725 c 13.966 12.483 29.808 22.427 47.127 29.592 c 10.6 26.694 30.482 48.726 55.639 62.103 c -0.537 18.369 -2.939 30.553 -12.265 43.031 c -4.131 5.525 -5.862 12.329 -4.876 19.157 c 0.987 6.829 4.574 12.863 10.099 16.992 c 4.499 3.363 9.842 5.142 15.449 5.142 c 8.111 0 15.851 -3.875 20.702 -10.365 c 15.711 -21.021 20.286 -41.788 21.829 -60.056 c 1.799 0.08 3.606 0.128 5.425 0.128 h 13.973 c -1.303 10.29 -4.22 19.539 -11.294 29.002 c -8.525 11.407 -6.182 27.624 5.224 36.148 c 4.499 3.364 9.841 5.143 15.45 5.143 c 8.111 0 15.851 -3.875 20.701 -10.365 c 15.75 -21.071 20.277 -41.777 21.818 -59.928 h 19.41 c -1.303 10.29 -4.22 19.539 -11.292 29.002 c -4.131 5.525 -5.862 12.329 -4.876 19.157 c 0.987 6.829 4.574 12.863 10.1 16.993 c 4.5 3.363 9.842 5.141 15.449 5.141 c 8.111 0 15.851 -3.875 20.702 -10.365 c 15.758 -21.085 20.281 -41.802 21.818 -59.959 c 6.653 -0.087 13.21 -0.727 19.623 -1.878 c -1.232 11.4 -4.185 21.117 -11.506 30.911 c -4.131 5.525 -5.862 12.329 -4.876 19.157 c 0.987 6.829 4.574 12.863 10.1 16.993 c 4.5 3.363 9.842 5.141 15.449 5.141 c 8.111 0 15.851 -3.875 20.702 -10.365 c 21.674 -29 22.644 -58.695 22.694 -85.229 c 16.86 -13.055 30.308 -30.583 38.39 -51.204 C 471.121 335.045 512 286.724 512 230.361 C 512 205.089 503.75 180.488 488.142 159.219 z M 448.829 25.565 c 7.507 0 13.613 6.106 13.613 13.613 s -6.107 13.613 -13.613 13.613 s -13.613 -6.106 -13.613 -13.613 S 441.322 25.565 448.829 25.565 z M 344.408 25.565 c 7.507 0 13.613 6.106 13.613 13.613 s -6.107 13.613 -13.613 13.613 s -13.613 -6.106 -13.613 -13.613 S 336.901 25.565 344.408 25.565 z M 315.658 83.735 c 7.802 3.433 15.007 8.187 21.275 14.07 c -8.579 0.92 -16.94 2.448 -25.031 4.52 C 312.643 96.314 313.84 89.956 315.658 83.735 z M 285.483 77.369 c 5.401 0 10.736 0.593 15.924 1.726 c -1.393 4.671 -2.42 9.173 -3.157 13.222 c -0.911 5.008 -1.524 10.009 -1.899 14.777 c -30.189 10.864 -55.57 29.667 -72.587 53.349 v -7.948 c 0 -11.432 -2.145 -22.372 -6.044 -32.444 C 230.185 94.023 256.454 77.369 285.483 77.369 z M 47.904 335.788 c -11.298 -5.828 -21.792 -13.039 -31.32 -21.557 C 15.206 312.999 15 311.484 15 310.69 c 0 -0.794 0.206 -2.31 1.585 -3.543 c 9.529 -8.518 20.024 -15.731 31.325 -21.559 c -1.738 8.174 -2.644 16.579 -2.644 25.101 C 45.267 319.295 46.181 327.689 47.904 335.788 z M 58.512 152.495 c 0 -41.425 33.701 -75.126 75.126 -75.126 s 75.126 33.701 75.126 75.126 v 35.375 c -4.911 12.531 -7.707 25.886 -8.034 39.752 h -67.092 C 92.213 227.622 58.512 193.92 58.512 152.495 z M 126.448 482.087 c -2.064 2.762 -5.231 4.346 -8.688 4.346 c -2.345 0 -4.581 -0.745 -6.469 -2.156 c -2.315 -1.73 -3.819 -4.261 -4.232 -7.123 c -0.414 -2.862 0.312 -5.715 2.044 -8.031 c 11.165 -14.938 14.14 -29.662 15.01 -45.391 c 6.82 2.518 13.93 4.43 21.263 5.683 C 144.015 446.104 140.077 463.852 126.448 482.087 z M 197.757 482.087 c -2.064 2.762 -5.231 4.346 -8.688 4.346 c -2.346 0 -4.581 -0.745 -6.468 -2.156 c -4.782 -3.574 -5.765 -10.372 -2.191 -15.154 c 9.803 -13.114 13.081 -25.898 14.388 -37.982 h 21.725 C 215.046 446.812 210.936 464.454 197.757 482.087 z M 182.064 416.14 c -5.787 -5.375 -11.148 -11.521 -15.954 -18.313 c -2.394 -3.382 -7.074 -4.181 -10.455 -1.789 c -3.381 2.393 -4.182 7.074 -1.789 10.455 c 2.35 3.321 4.825 6.504 7.405 9.546 C 105.18 413.7 60.266 367.345 60.266 310.689 c 0 -29.444 12.233 -57.326 33.719 -77.274 c 10.67 5.25 22.519 8.455 35.037 9.09 c -11.752 41.935 -9.049 91.659 7.594 132.285 c 1.189 2.903 3.989 4.659 6.943 4.659 c 0.946 0 1.91 -0.181 2.84 -0.561 c 3.833 -1.57 5.668 -5.95 4.098 -9.783 c -15.956 -38.951 -18.096 -86.888 -5.88 -126.482 h 56.147 c 0.195 0 0.389 -0.014 0.584 -0.018 c 2.348 22.071 10.971 42.608 24.331 60.278 c 0.662 23.846 5.205 47.383 13.204 68.219 c 6.656 17.333 15.44 32.408 26.192 45.039 L 182.064 416.14 L 182.064 416.14 z M 269.066 482.087 c -2.064 2.762 -5.231 4.346 -8.688 4.346 c -2.345 0 -4.582 -0.745 -6.47 -2.156 c -2.315 -1.73 -3.819 -4.261 -4.232 -7.123 c -0.414 -2.862 0.311 -5.715 2.044 -8.031 c 9.802 -13.114 13.08 -25.898 14.386 -37.982 h 21.725 C 286.355 446.81 282.245 464.453 269.066 482.087 z M 340.376 482.087 c -2.065 2.762 -5.232 4.346 -8.688 4.346 c -2.345 0 -4.582 -0.745 -6.47 -2.156 c -2.316 -1.73 -3.819 -4.261 -4.233 -7.123 s 0.312 -5.715 2.044 -8.031 c 10.449 -13.98 13.793 -27.793 14.874 -43.698 c 7.697 -2.464 15.09 -5.697 22.087 -9.607 C 359.528 438.395 356.788 460.126 340.376 482.087 z M 301.319 416.14 h -15.518 c -23.465 -21.828 -39.156 -56.305 -43.784 -95.222 c 28.458 26.446 69.175 43.038 114.327 43.038 c 13.196 0 26.012 -1.422 38.256 -4.087 C 376.555 394.037 340.733 416.14 301.319 416.14 z M 285.9 203.507 c 0 4.143 3.357 7.5 7.5 7.5 s 7.5 -3.357 7.5 -7.5 c 0 -3.396 2.763 -6.159 6.159 -6.159 s 6.159 2.763 6.159 6.159 c 0 4.143 3.357 7.5 7.5 7.5 c 4.142 0 7.5 -3.357 7.5 -7.5 c 0 -11.667 -9.492 -21.159 -21.159 -21.159 S 285.9 191.84 285.9 203.507 z M 408.001 203.507 c 0 4.143 3.357 7.5 7.5 7.5 s 7.5 -3.357 7.5 -7.5 c 0 -3.396 2.763 -6.159 6.159 -6.159 s 6.159 2.763 6.159 6.159 c 0 4.143 3.357 7.5 7.5 7.5 s 7.5 -3.357 7.5 -7.5 c 0 -11.667 -9.492 -21.159 -21.159 -21.159 S 408.001 191.84 408.001 203.507 z M 376.944 214.545 c -2.23 2.561 -5.451 4.028 -8.835 4.028 s -6.604 -1.469 -8.836 -4.029 c -2.721 -3.122 -7.458 -3.447 -10.582 -0.725 c -3.122 2.722 -3.446 7.459 -0.725 10.582 c 5.081 5.829 12.423 9.172 20.143 9.172 c 7.721 0 15.064 -3.344 20.143 -9.173 c 2.722 -3.123 2.396 -7.86 -0.727 -10.582 C 384.403 211.097 379.666 211.422 376.944 214.545 z"
           transform=" translate(-256, -256)"
           style="stroke: none; stroke-width: 1; stroke-dasharray: none; stroke-linecap: butt; stroke-dashoffset: 0; stroke-linejoin: miter; stroke-miterlimit: 4; fill: url(#SVGID_24); fill-rule: nonzero; opacity: 1;" /></g></g></g><g
     id="logo-name"
     style=""
     transform="matrix(2.25 0 0 2.25 347.14 223.62)"><linearGradient
       y2="33.89999999999999"
       x2="0"
       y1="0"
       x1="0"
       gradientTransform="matrix(1 0 0 1 -61.31 -16.95)"
       gradientUnits="userSpaceOnUse"
       id="SVGID_2"><stop
         id="stop150"
         style="stop-color:rgb(230,180,51);stop-opacity: 1"
         offset="0%" /></linearGradient><text
       id="text155"
       style="stroke: none; stroke-width: 1; stroke-dasharray: none; stroke-linecap: butt; stroke-dashoffset: 0; stroke-linejoin: miter; stroke-miterlimit: 4; fill: url(#SVGID_2); fill-rule: nonzero; opacity: 1; white-space: pre;"
       font-weight="normal"
       font-style="normal"
       font-size="30"
       font-family="Nova Square"
       xml:space="preserve"><tspan
         id="tspan153"
         y="9.42"
         x="-61.31">QUIZBEE</tspan></text>
</g></svg>